<svg width="24" height="25" fill="none" xmlns="http://www.w3.org/2000/svg"><path d="M12 2.75a9.75 9.75 0 1 0 9.75 9.75A9.76 9.76 0 0 0 12 2.75Zm0 18a8.25 8.25 0 1 1 8.25-8.25A8.26 8.26 0 0 1 12 20.75ZM7.5 10.625a1.125 1.125 0 1 1 2.25 0 1.125 1.125 0 0 1-2.25 0Zm9.75 0a.75.75 0 0 1-.75.75h-2.25a.75.75 0 1 1 0-1.5h2.25a.75.75 0 0 1 .75.75Zm-.851 4.5C15.434 16.793 13.83 17.75 12 17.75c-1.83 0-3.434-.956-4.4-2.625a.75.75 0 1 1 1.3-.75c.7 1.21 1.8 1.875 3.1 1.875s2.4-.666 3.101-1.875a.751.751 0 0 1 1.393.17.752.752 0 0 1-.095.58Z" fill="#fff"/></svg>